# xmcd
#
# Track frame offsets:
#	187
#	17592
#	33182
#	48680
#	64535
#	82767
#	96695
#	116342
#	131577
#	143880
#
# Disc length: 2126 seconds
#
# Revision: 2
# Processed by: cddbd v1.5.1PL0 Copyright (c) Steve Scherf et al.
# Submitted via: EasyCDDAExtractor 7.5.0.1
#
DISCID=7f084c0a
DTITLE=Rhett Akins - A Thousand Memories
DYEAR=1995
DGENRE=Country
TTITLE0=Heart To Heart
TTITLE1=What They're Talkin' About
TTITLE2=Old Dirt Road
TTITLE3=She Said Yes
TTITLE4=That Ain't My Truck
TTITLE5=Katy Brought My Guitar Back Today
TTITLE6=A Thousand Memories
TTITLE7=I Brake For Brunettes
TTITLE8=Same Ol' Story
TTITLE9=Those Hands
EXTD=
EXTT0=
EXTT1=
EXTT2=
EXTT3=
EXTT4=
EXTT5=
EXTT6=
EXTT7=
EXTT8=
EXTT9=
PLAYORDER=
